<?xml version="1.0" encoding="UTF-8"?>
<svg id="Layer_2" data-name="Layer 2" xmlns="http://www.w3.org/2000/svg" viewBox="0 0 76.42 72.35">
  <defs>
    <style>
      .cls-1 {
        fill: #273a80;
      }

      .cls-2 {
        fill: #fecf09;
      }
    </style>
  </defs>
  <g id="Layer_1-2" data-name="Layer 1">
    <g>
      <path class="cls-1" d="M63.28,13.87c2.07,1.05,4.15,2.45,4.38,4.99.05.58-.07,1.14-.06,1.66,0,.48,2.18,3.23,2.59,3.84.65.96.37,1.28.51,2.33.17,1.24,1.23,2.35,1.91,3.41,1.08,1.68,2.32,3.62,3.18,5.41s.97,2.72-.49,4.08c-.95.89-2.09,1.67-3.06,2.56-.71.66-1.19,1.54-2.26,1.64-.21.02-.5-.05-.66-.03-.17.03-.6.33-.82.41-.7.28-1.43.4-2.17.49-.15-.03-.27-.16-.19-.31.04-.08.65-.55.8-.75.12-.15.66-1.03.58-1.16-.5-.34-1.21-.42-1.81-.44-.85-.03-1.76.1-2.54.43-.19,1.83.58,4.39,2.17,5.44.07.05.04.1.12,0,.39-.47.57-1.54.78-2.13.05-.11.3-.15.37-.06.11.14.35.87.4,1.07.14.59.16,1.15.08,1.75-.03.19-.18.47-.17.63s.32.67.39.91c.4,1.43-.73,1.91-1.33,2.98-.49.87-1.01,2.7-1.82,3.18-.16.09-.33.16-.51.2.9,1.59.16,2.76-.99,3.87-5.41,5.21-13.04,8.56-20.49,9.38-.24.43-.46.88-.78,1.26-2.04,2.38-6.02,1.69-7.06-1.26-7.26-.8-14.26-3.86-19.72-8.7-1.45-1.28-2.93-2.5-1.73-4.61-.2-.05-.4-.15-.56-.28-.7-.54-2.38-2.26-2.97-2.97-.9-1.08-.89-2.36-.81-3.71.04-.6.12-1.73.99-1.45-.04-.71.07-1.41.31-2.07.58-1.64.7-.29.96.46.04.12.31.86.37.87.22-.08.23-.33.35-.51.28-.43.62-.84,1.04-1.14-.27-1.33-.12-2.69.27-3.98-.06-.13-.81-.59-.97-.59-.26,0-1.08.31-1.37.42-.72.26-1.39.61-2.09.91.22.59.5,1.22.99,1.64.14.12.34.04.24.36-.06.16-.53.11-.69.09-.5-.04-1.21-.26-1.64-.52-.16-.1-.47-.42-.54-.45-.32-.1-.98.02-1.38-.1-.27-.08-.55-.87-.71-1.14-.49-.82-1.24-1.63-1.98-2.23-1.27-1.03-2.86-1.48-2.69-3.5.05-.59.84-2.1,1.15-2.69,1.38-2.64,3.3-5.08,5.13-7.42.09-.56,0-1.13.04-1.69.14-1.59,1.05-3.11,2.31-4.06.05-.38-.06-.74-.03-1.15.06-.93.89-1.89,1.25-2.77.21-.51.28-1.08.56-1.55.47-.78,1.6-1.25,2.33-1.75-.31-.73-.45-1.5-.17-2.26.39-1.04,2.67-2.84,3.61-3.57,13.24-10.34,31.98-10.05,44.89.68.78.65,2.5,2.04,2.8,2.95.32.97.07,1.92-.6,2.67Z"/>
      <g>
        <path class="cls-2" d="M61.55,56.32c-.15-.24-.09-.54-.04-.8.68-2.71-2.21-5.51-4.89-4.7-.93.26-1.23-1.14-2.17-1.26-.74-.12-1.48,1.02-2,1.45-8.4,7.52-21.61,7-29.48-1-.26-.25-.51-.44-.81-.45-.28-.01-.6.12-1.02.48-.43.39-.61.93-1.3.76-2.21-.67-4.72,1.17-4.97,3.41-.05.45.02.84.08,1.26.02.22.08.46,0,.68-.2.56-1.04.92-1.14,1.6-.05.4.14.71.41,1,5.5,5.72,13.29,9,21.17,9.61.01,0,.02.01.02.03,0,.04.01.08.02.12.22,1.41,1.4,2.44,2.81,2.42,1.3,0,2.58-.87,2.79-2.58,7.48-.58,14.97-3.54,20.39-8.8.41-.42.96-.89,1.17-1.4.1-.39-.01-.82-.3-1.1-.23-.25-.54-.46-.73-.75h0ZM17.3,57.41l4.09-4.51c.1.18.63.4.56.61l-4.11,4.49c-.12-.11-.61-.43-.53-.59ZM20.8,60.3l1.41-4.5-2.41,3.71-.74-.46,3.55-5.03.63.45-1.4,4.42,2.45-3.71c.12.09.66.38.63.51l-3.46,4.99-.67-.38ZM23.8,62.04c-.17-.08-.55-.29-.66-.39.08-.15.14-.26.25-.47.64-1.21,2.29-4.22,2.28-4.27-.07-.2-.69-.37-.79-.54.08-.11.21-.48.34-.57.34.08,1.78.95,2.3,1.23.02.01.05.02.07.04-.11.14-.2.52-.34.58-.15.03-.62-.4-.82-.33-.43.47-2.33,4.73-2.63,4.72h0ZM26.73,62.6l1.23.44c-.03.09-.07.18-.12.31-.05.14-.1.26-.14.36,0,0,0,0-.01,0l-1.96-.76s-.04-.13-.05-.16c.38-.97,2.18-5.5,2.23-5.55.42.15,1.04.37,1.58.56.28.1.48.17.51.18,0-.02-.29.72-.29.68-.33-.13-.87-.35-1.22-.49-.26.5-.48,1.05-.65,1.59-.02.07-.05.15-.06.22,0,.01.02.01.03.02.23.11.87.3,1.01.39.07.12-.09.37-.14.52-.02.06-.04.11-.04.15,0,0,0,0-.02,0l-.05-.02c-.32-.11-.79-.27-1.1-.38-.15.33-.29.66-.44,1.03-.18.44-.34.87-.3.92h0ZM32.53,60.02c-.08.52-.36,1.21-.79,1.5-.11.06-.26.08-.36.11-.06.02-.11.04-.12.09,0,.03.23,2.38.3,3.1,0,.01,0,.02,0,.02h-.04c-.21-.05-.61-.14-.81-.19,0-.02-.11-1.41-.19-2.34-.03-.42-.06-.72-.06-.81-.14.48-.82,2.93-.81,2.84-.07-.02-.66-.15-.8-.18.06-.18,1.11-4.09,1.39-5.07.11-.4.17-.62.25-.93.29.08.61.15.89.23.91.22,1.28.68,1.16,1.62h0ZM35.57,65.45c-.24-.05-.72.02-.81-.21l-.74-4.68-.49,4.58-.8-.06.8-6.12.8.07.75,4.76.49-4.58.8.12-.8,6.12ZM38.39,69.84c-2.38.2-2.5-3.33-.29-3.45,2.24-.12,2.48,3.27.29,3.45ZM39.1,65.51s-.13-1.05-.22-1.17c-.03-.04-.08-.05-.15-.06-.3-.04-.91.11-1.12.07h0c0,.19-.1,1.07-.18,1.15-.18.08-.44.02-.63.02-.07,0-.14,0-.18,0,.01-.08.03-.15.05-.27.25-1.14,1.08-5.5,1.2-5.91.1,0,.59,0,.66,0,.08.39.61,2.58.79,3.4.23.97.48,2.05.63,2.72-.13.01-.65.04-.86.06h0ZM42.01,65.26c-.2.03-.64.1-.8.12-.03-.15-.03-.27-.06-.48-.17-1.33-.62-4.98-.62-4.96-.2.02-.99.14-.99.11,0-.09-.05-.56-.06-.73-.02,0,2.6-.29,2.72-.31,0-.02.06.72.06.74-.14.02-.29.02-.45.03-.19.02-.38.04-.45.09-.01,0-.02.03-.02.03,0,.02.67,5.34.67,5.34h0ZM43.92,65.01l-1.16-5.98c-.03-.14.72-.27.76-.26.05.01.08.05.09.1l1.12,5.95-.8.19ZM48.62,63.06c-.12.99-1.35,1.49-2.18.89-.95-.68-1.91-3.79-1.63-4.89.3-1.25,1.99-1.33,2.62-.28.67,1.03,1.29,3.01,1.19,4.27h0ZM52.3,62.05c-1.01-1.08-1.94-2.25-3-3.28l1.91,3.88v.08s-.74.28-.74.28l-2.59-5.6.74-.28,3.09,3.37-1.97-3.88c-.03-.12.01-.06.07-.1.09-.05.62-.29.66-.27l2.6,5.6c-.27.03-.51.37-.78.19ZM56.09,59.87c-.18-.05-.68-.78-.81-.8-.22.13-.98.63-1.02.65,0,0,0,0,0,0,.07.21.46.95.41,1.1-.02.07-.56.42-.66.42-.04-.02-2.14-5.71-2.17-5.75-.07-.24.29-.33.45-.44.02-.01.05-.03.06-.04,0,0,0,0,0,0,.03.03.05.05.08.08.73.72,1.58,1.58,2.38,2.37.71.7,1.46,1.46,1.95,1.95,0,.11-.51.46-.69.45h0ZM59.29,57.41s-1.22,1.04-1.61,1.36c0,.02-3.97-4.71-3.99-4.73.16-.09.54-.57.68-.5.26.31.75.88,1.14,1.34.62.73,1.7,2,2.2,2.59.07.08.1.12.15.18.08-.03.57-.5.74-.65.08-.08.15-.13.19-.16.04-.03.06-.06.11-.06.01,0,.03,0,.04,0,0,0,0,.02,0,.03.05.21.42.35.34.58h0Z"/>
        <path class="cls-2" d="M14.86,13.53c.21.33.1.75.06,1.13-.43,2.34,1.85,4.82,4.21,4.58.33-.03.63-.1.96-.11.72.01.98,1.07,1.82,1.16.34.04.65-.09.92-.33,8.17-8.14,21.38-8.68,29.93-.78.34.33.65.67,1.03.94,1.14.76,1.57-.75,2.38-.97.24-.05.46.08.7.1,2.82.21,5.24-2.11,4.58-4.99-.03-.16-.03-.33.02-.48.24-.69,1.32-1.05,1.11-1.92-.09-.62-1.65-1.85-2.14-2.29C47.75-1.43,27.79-1.22,15.36,10.12c-.48.44-1.15.97-1.43,1.49-.17.38-.12.85.18,1.15.23.26.54.47.74.76h0ZM53.95,13.33c-.6-.83-.91-1.75-.32-2.69,1.67-2.84,5.01-1.26,6.1,1.12.04.07.02.17-.04.22-.04.04-.43.26-.82.47-.35.18-.63.36-.98.48-.02,0-.12.03-.12-.01-.02-.19-.08-.36-.16-.53-.25-.52-.88-1.17-1.47-.86-.54.37.66,1.55.9,1.91.22.35.4.68.49,1.06.13.5,0,1.11-.29,1.6-1.65,3.03-5.58,1.21-6.54-1.59-.03-.13-.02-.25.08-.31.03,0,1.74-.9,1.91-.95.07.79.9,2.33,1.83,2.06.17-.04.34-.16.37-.34.06-.58-.64-1.2-.95-1.64h0ZM43.74,3.54s1.7.57,2.26.75c.03-.02,1.93,5.53,1.95,5.56.12.1.22-.34.25-.41.24-.64.45-1.3.66-1.95.21-.65.41-1.31.64-1.96.59.17,1.7.54,2.19.69.1.04.16.04.15.05-.34,1.01-2.74,8.03-2.76,8.09-.61-.21-1.66-.56-2.22-.75,0,.03-1.56-4.49-1.95-5.62-.37,1.07-1.24,3.54-1.54,4.43.06,0-1.85-.62-2.33-.8-.06.02,2.71-8.07,2.7-8.08h0ZM34.51,3.19c3.26-.41,6.09,2.21,5.19,5.69-.15.61-.45,1.19-.83,1.66-2.07,2.53-6.62,2.22-7.98-.9-1.32-2.82.52-6.13,3.61-6.45h0ZM26.61,5.27c.62,1.45,3.4,7.97,3.34,7.82-.02.01-.07.03-.16.07-.49.22-1.65.75-2.07.94,0,0-.02,0-.02,0,0,0-.03-.08-.1-.24l-3.27-7.65s.07-.03.16-.07c.37-.16,1.69-.7,2.12-.89h0ZM18.67,9.86s4.02,4.84,4.04,4.85c.02,0,.14,0,.17,0,.4-.3.9-.73,1.4-1.12.27-.22.48-.39.49-.39.39.51.91.99,1.27,1.5.04.05.09.1.04.17-.48.38-1.57,1.29-2.23,1.83-.67.55-1.14.94-1.61,1.32-.04-.1-4.25-5.16-5.33-6.51-.03-.04-.05-.06-.07-.09,0,0,1.82-1.56,1.82-1.56h0Z"/>
        <path class="cls-2" d="M36.79,15.19c-14.5.74-23.2,17.58-15.56,29.98,7.52,12.66,26.31,12.73,33.85.17,8.65-14.01-2.67-31.25-18.28-30.14h0ZM53.68,44.26c-6.5,10.99-22.7,11.74-30.12,1.22-8.02-10.98-1.03-26.77,12.33-28.42,15.12-2,25.48,14.65,17.8,27.19h0Z"/>
        <path class="cls-2" d="M75.14,36.29c-.9-2.11-2.45-4.35-3.64-6.19-.44-.67-.88-1.16-1.2-1.73-.28-.48-.46-1.02-.53-1.6-.03-.38-.03-.9-.05-1.26-.01-.14-.02-.25-.05-.27-.11-.1-.3-.25-.43-.37-.61-.54-.73-1.35-1.11-1.9-.09-.14-.27-.19-.38-.32-.48-.57-.89-1.25-1.13-1.97,0-.02-.01-.05-.02-.07-.02,0-.06,0-.08,0-.46,0-1.09-.05-1.39-.41-.21-.31-.37-.75-.57-1.07-.27-.42-.63-.77-1-1.09-.01,0-.03-.03-.03-.03.03.09.07.17.1.26.22.57.44,1.16.45,1.78,0,.02,0,.04,0,.06-.11.03-.26.04-.36.02-.24-.05-.33-.24-.52-.38-.44-.33-.98-.67-1.51-.81.22.24.99,1.27.92,1.35-.19-.08-.4-.17-.6-.22-.62-.16-1.26-.17-1.9-.21-.01,0-.03,0-.03,0,0,.03-.01.05-.01.07,0,.02,0,.03.01.04.02.02.1,0,.14.03.32.16.64.31.9.56.11.1.27.26.34.37.03.04.04.08.03.1-.04,0-.11-.04-.16-.04-.81-.24-1.66-.2-2.49-.2-.02,0,0,0,0,0,.2.08,1.34.5,1.72.65.03.01.05.02.07.03,0,0,0,0,0,0-.02.01-.04.04-.06.05-1.36.8-1.25,2.69-.92,4.03-.02,0-1.03-.12-1.05-.12h0c.4,1.48,1.69,2.51,3.07,3,.08.03.18.06.26.09.02.02.01.05,0,.1-.09.24-.41.63-.49.83,0,.01,0,0,0,0,.1,0,.18-.02.31-.03.2-.02.46-.04.72-.06l1.06-.09c-.14.16-.31.29-.48.41-.53.36-1.17.57-1.67.94,1.22-.09,2.41-.45,3.58-.82.16-.05.32-.11.49-.16-.31.42-.74.74-1.16,1.04-.41.26-1.09.68-1.49.93,0,0,.03,0,.05,0,.98.05,1.96-.07,2.89-.36.13-.04.27-.09.39-.13-.06.1-.15.21-.23.3-.59.68-1.43,1.13-2.22,1.51,0,.15.64.11.84.1.4-.03,1.66-.24,1.87-.16-.42.28-.89.49-1.37.65-1.44.47-3.03.48-4.52.36-.23-.01-.91-.24-.92.07,0,.1.06.22.11.31,0,0,0,0,0,0,.01,0,.02,0,.04,0,.59.11,1.15.23,1.84.36.94.18,1.89.37,1.9.37-.7,0-1.76.41-1.55,1.29-.13-.02-2.26-.98-2.28-.98.07.23-.16.59,0,.77.28.24,1.14.57,1.36.65.05.18-.22.85-.34,1.26-.03.08-.04.14-.06.21,0,.02-.03.04-.07.06-.16.08-.33.14-.52.21-.28.11-.58.22-.68.33-.12.13-.13.46-.18.65.07.02.69-.51.89-.55.14.02.24.39.46.47.12.04.23.04.38.04.45.01.91-.05,1.36-.03.58.04,1.18.13,1.75.23.14.04.47.13.49.14-.08,0-.18-.02-.26-.02-1.71-.13-3.49.1-5.07.79-.11.05-.19.1-.24.14-.16.18-.16.56-.28.79,0,.01-.02.03-.02.03,0,0,.03-.01.04-.02.39-.18.74-.43,1.14-.6,1.98-.83,5.44-.94,7.18.44.17.13.36.28.56.43.35.27.73.55,1.12.76.47.25.91.42,1.36.35.51-.08,1.47-1.24,1.89-1.64.22-.19.62-.46.73-.66.1-.99-.56-2.25-1.52-2.64-.32-.09-.8-.22-1.12-.31-.02,0-.04,0-.03-.01.02-.01.06-.03.09-.05.4-.23.78-.57,1.18-.81.81-.52,1.97.02,2.7.46.16.1.44.34.54.39.08.03.15-.07.23-.15.08-.08.15-.18.23-.12.09.07.32.29.43.39.03.03.06.05.08.07,0,0,.01.01.02,0,.03-.12.04-.26.03-.38-.02-.39-.17-.76-.32-1.11h0ZM71,40.18c-.07.34-.75.83-1.07.77-2.12-.76-4.26-1.72-6.48-2.18-.47-.09-1.1-.19-1.52-.31-.03-.01-.06-.02-.08-.04-.01-.03-.01-.06,0-.09.08-.12.21-.1.36-.11,2.32.18,4.57,1.11,6.79,1.75,0,0,.01-.01.01-.01.02-.11-.07-.12-.13-.17-.89-.79-3.42-2.05-4.6-2.4-.37-.1-.96-.2-1.34-.36-.05-.03-.09-.12,0-.14.53-.26,1.92.21,2.5.39,1.39.48,2.68,1.27,3.85,2.14,0,0,0,0,.01,0l.02-.12s.02-.07.01-.09c-.58-.47-1.13-.97-1.71-1.45-.59-.49-1.2-.96-1.87-1.33-.33-.16-.79-.35-1.08-.51-.08-.05-.14-.07-.19-.14-.01-.01-.02-.03-.01-.05.65-.46,3.02,1.26,3.62,1.69.82.66,2.88,2.46,2.91,2.77h0ZM69.65,29.79c-.4-.24-1.23-.4-1.4-.6-.11-.15-.28-.56-.38-.71-.16-.22-.28-.43-.48-.49-.19-.05-.4.23-.82.41-.5.23-1.7.68-2.16.3-.1-.16.13-.35.26-.44.47-.37.96-.3,1.36-.47.55-.24.87-.89,1.06-1.42.04-.16.08-.31-.03-.34-.09-.02-.25-.06-.32-.02-.2.13-.62,1.58-1.2,1.51-.26-.5.24-1.08-.08-1.65h0c-.1,0-.29.06-.39.1-.21.06-.21.34-.22.66,0,.27.04.53.11.77-.17-.07-.38-.42-.52-.47-.17.04-.37.15-.55.21-.79.25-1.64.2-2.28-.1-.65-.29-1.13-.9-1.34-1.58,0,0,0-.01,0-.02,0,0,.01.02.02.02.25.29.57.49.94.59,2.51.74,4.62-1.57,7.08-1.04.18.05.33.13.44.23.51.43.43,1.35.67,2.16.11.39.22.7.35.96.29.62.77,1.08,1.19,1.85,0,.03,0,.06,0,.09-.01.01-.04.01-.06.01-.5.1-.85-.3-1.23-.54h0ZM70.21,31.31c.31.08.85.24,1.14.05.08-.05.16-.24.19-.24.11,0,1.31,1.5.19,1.35-.56-.07-1.23-.7-1.52-1.17ZM71.32,32.98c.42.13,1,.65,1.45.5.08-.03.17-.13.18-.13.12,0,.39.76.27.92-.3.16-.63-.09-.88-.25-.41-.28-.71-.67-1.03-1.04ZM72.55,34.87c-.07-.07-.15-.11-.12-.22.42.23.92.65,1.42.5-.16.73-1,.02-1.3-.28Z"/>
        <path class="cls-2" d="M66.34,49.67s-.12-.06-.19-.06c-2.3.35-6.25-1.54-7.99-2.97-.69-.64-.57-1.45-.56-2.45,0-.04-.03-.07-.06-.08-.02,0-.02.04-.03.06-.11.27-.23.54-.36.8-.23.68-1.81,2.16-.14,1.99.27-.03.53-.17.8-.22.05,0,.11-.02.15-.02-.03.04-.08.08-.12.13-.27.31-.92,1.09-.32,1.31.38.12.77.03,1.13-.09.24-.08.48-.18.72-.23,0,0-.01.01-.01.02,0,0-.01.02-.02.03-.17.27-.53.95-.29,1.19.35.26,1.33.02,1.84-.08.21-.05.4-.09.53-.11.02.02-.04.11-.11.22-.5.64-.65,1.35.41,1.24.66-.08,1.35-.37,1.99-.51.02,0,.04-.01.05,0-.03.12-.07.23-.11.35-.27.86-.91,2.45-.31,3.15.67.67,1.24-.56,1.54-1.05.24-.43.53-.74.9-1,.2-.13.42-.2.58-.31.27-.17.28-.51.16-.78-.05-.14-.14-.38-.2-.49h0Z"/>
        <path class="cls-2" d="M62.05,42.76c-.35-.52-1.14-.88-1.71-.77-.59.12-.8.75-.23,1.45.27.35.9.53.87,1.06-.59,1.51,1.04,3.29,2.4,3.55-.73-.69-1.09-1.66-1.11-2.66-.03-.83.14-1.88-.22-2.62h0Z"/>
        <path class="cls-2" d="M66.56,46.58c-.1-.11-.1.03-.13.09-.17.38-.28.86-.48,1.25-.2.4-.49.77-.75,1.13.27.1,1.2.07,1.36-.16.17-.26.21-1.09.18-1.41,0-.11-.15-.87-.18-.9Z"/>
        <path class="cls-2" d="M67.11,44.11c.15.11,1.9-.48,2.04-.8-.46-.07-.83-.35-1.24-.56-.19.5-.52.92-.8,1.36Z"/>
        <path class="cls-2" d="M58.58,24.38c-.78-.6-1.17-1.44-1.27-2.41-.49,1.19-.32,2.52,1.27,2.41Z"/>
        <path class="cls-2" d="M12.88,50.24c.46.2.99.31,1.48.24.04-.25.09-.68.12-.92,0,0,0,0,.01,0,.52.16,1.03-.02,1.55-.06.01,0,.04,0,.05,0,.01-.02.01-.05.01-.06,0-.02,0-.04-.02-.05-.11-.05-.22-.14-.34-.21-.08-.06-.18-.14-.21-.23.02-.01.07,0,.09-.01.91-.11,1.77-.46,2.59-.85-.12-.12-.58-.52-.59-.53,0-.03,0-.1,0-.12,0,0,0,0,0,0,.34-.1.66-.2,1.07-.32.56-.17,1.13-.33,1.21-.36.04.02-.88-.47-.98-.52-.06,0,.75-.24.77-.25.01-.01.06-.07.08-.09,0-.02-.04-.06-.05-.09-.55-.94-1.03-1.92-1.43-2.93-.39-.98-.7-1.98-.95-3-.02-.06-.03-.14-.05-.2-.18-.02-.37,0-.56,0-.55,0-1.14,0-1.62-.32-.16-.1-.32-.24-.22-.44.38-1.17.03-2.24-.5-3.31.36.02.73.24,1.05.43.33.2.64.44.98.6.23-.54.36-1.14.38-1.73,0-.08,0-.16,0-.24-.13.02-.26.07-.39.1-.92.23-1.86.42-2.81.27-.03,0,1.83-1.04,1.84-1.05-.45.03-.91.13-1.36.03-.22-.06-.56-.12-.74-.23-.1-.19.51-.46.66-.59.16-.09.61-.31.64-.33-1.56-.2-2.94-1.17-3.9-2.39-.06-.08-.13-.16-.18-.24.45-.1.93-.11,1.38-.06.45.06.89.19,1.3.38.03.02.04.02.01-.01-.37-.57-.74-1.2-.78-1.88.21,0,.43.03.63.06.61.11,1.2.36,1.74.66,0,0,.03.02.03.01-.02-.08-.06-.17-.1-.25-.26-.55-.7-.98-1.09-1.43-.01-.01-.03-.03-.03-.04.05,0,.13,0,.19,0,.95-.04,1.95-.31,2.64-.98-1.11.56-2.52.73-3.6,0-.66.77-1.65,1.65-2.75,1.19-.13-.06-.28-.2-.41-.21-.23.16-.52.48-.76.66-.82.59-1.85.98-2.86.94.41-.26.66-.68.83-1.12.18-.43.32-.88.64-1.23.09-.1.3-.17.36-.32.03-.15-.08-.95-.02-1.17.07-.25.19-.66.36-.74.75-.23,1.74-.39,2.51-.18.65.17,1.28.59,1.92.86.97.45,2.1.55,3-.06.01-.01.03-.02.04-.03,0-.01-.01-.03-.02-.04-.21-.34-.48-.65-.57-1.05,0-.06-.03-.12-.02-.17,0,0,.03,0,.05,0,.44-.04.91-.16,1.27-.39.36-.23.61-.55.68-.97.12-.82-.3-1.79-1.28-1.59-.27.04-.46.25-.7.11-.06-.03-.12-.1-.16-.16-.02-.02-.03-.04-.04-.07,0-.02.02-.03.03-.05.36-.52.95-.81,1.47-1.14.02-.01.01-.02.01-.03,0-.03-.04-.06-.09-.11-.14-.13-.42-.3-.46-.29-.27.1-.66.32-.95.48-.26.15-.88.67-1.09.61-.12-.05-.33-.11-.4-.21.09-.3.23-.59.4-.85.19-.29.42-.56.69-.78.22-.15.43-.18.2-.49-.86.41-1.57,1.09-2.17,1.82-.03.04-.03.01-.04-.02-.11-.42-.29-.85-.56-1.19-.28-.35-.7-.57-1.18-.57.11-.23,1.06-2.16,1.05-2.13.05-.03.1-.04.2-.09.47-.21,1.3-.6,1.75-.8,0-.14.1-.7.06-.99-.01-.1-.05-.17-.11-.18-.69.5-1.4.99-2.14,1.41-.1.06-.21.12-.31.18-.07.17-.13.34-.19.51-.2.51-.41,1.01-.64,1.5-.3.66-.62,1.3-.95,1.94-.02.05,0,.09,0,.14.02.28.09.81.12,1.16,0,.16.02.26-.02.34-1.97,1.12-2.66,3.27-2.34,5.45-.28.41-.61.79-.91,1.19-2,2.53-3.85,5.2-5.23,8.12-.12.24-.2.51-.21.77-.02.41.1.81.39,1.16,0,0,.02,0,.03,0,.11-.1.23-.2.36-.3,1.18-.91,2.67-1.3,4.12-1.43.57-.03.79-.68,1.28-.9-.14.4-.27.82-.32,1.24-.06.41-.06.84.01,1.25,0,.01,0,.03,0,.03-.04,0-.11,0-.15.01-.97.1-1.95.73-2.25,1.68-.09.21-.26.37-.5.35-.01,0,0,.01,0,.02.09.2.37.43.53.59.53.55.93,1.18,1.3,1.84.05.08.09.18.14.26.01,0,.04,0,.05,0,.3.01.65.13.93.12.43-.06.82-.47,1.2-.65,2.53-1.31,5.56-2.31,8.42-1.61.18.06.3.13.4.24.95,1.02,1.57,3.38,1.62,4.52.03.9-.65,1.54-1.42,1.89-.16.07-.36.09-.5.16-.17.16-.34.47-.52.64-.46.42-1.11.68-1.73.68-.2,0-.48-.06-.67-.05-.23.18-.44.53-.73.64-.37.18-.7.07-1.07.13-.62.37-1.36.43-2.04.18-.03,0-.07-.03-.1-.03,0,0,0,.02,0,.03.01.62.08,1.26.25,1.86.17.61.47,1.18.92,1.62-.08-.22-.17-.44-.23-.67-.2-.68-.3-1.37-.38-2.07,0-.01,0-.03,0-.03,0,0,.01.01.02.02.45.56.85,1.17,1.36,1.67.05.06.06.12.16.1-.05-.35-.13-.82-.19-1.18-.03-.18-.05-.32-.06-.35,0,0,0-.01,0,0,.02,0,.05.01.06.02.15.07.26.18.41.25.16.07.34.13.51.18.09.02.2.07.28.02.09-.08,0-.4.03-.54h0ZM4.15,34.49c-.38.39-1,.5-1.54.47-.02-.09.02-.15.05-.23.23-.62.83-1.62,1.18-2.22.55-.96,1.16-1.96,1.87-2.8-.63,1.55-1.31,3.11-1.55,4.79ZM10.16,30.82l.62.83c.27.28.57.56.89.78.31.21.69.32.96.55-.73.2-1.68.23-2.15-.47-.08-.12-.32-.68-.32-.79v-.9ZM5.36,40.03c-.12-.27.2-.51.37-.67,1.12-1.07,4.54-2.94,6.09-2.92,0,0,0,0,.01,0l-.53.32s-.04.03-.08.05c-1.71.75-3.4,1.59-4.83,2.8-.19.18-.45.42-.67.51-.14.06-.28.06-.35-.08h0ZM11.52,38.52c-1.29.77-2.52,1.24-3.74,2.2-.24.19-.79.79-1.02.84-.26.05-.32-.13-.22-.35.03-.06.4-.42.49-.5.8-.74,2.18-1.53,3.19-1.94.46-.19.98-.42,1.48-.4-.01.09-.12.12-.18.16ZM7.47,39.91c-.27.22-.94.96-1.24.93-.23-.02-.25-.21-.15-.39.29-.53,2.26-1.77,2.86-2.09.61-.33,2.18-1.08,2.82-1.07.07,0,.12.02.13.1-1.52.76-3.07,1.48-4.42,2.54ZM14.62,38.9c-.09.23-.31.35-.53.48-.33.17-.55.24-.83.22-.27,0-.87,0-.88,0,.03-.07.07-.17.1-.24.47-1.24.13-2.65-.47-3.79.11-.07.93.59,1.02.75.16.27.6.98.64,1.05,0,0,0,0,0,0,.08-.62.12-1.24.07-1.86,0-.01,0-.04,0-.04,0,0,.01.01.02.02l.02.02c.75.92,1.18,2.23.84,3.4h0Z"/>
        <path class="cls-2" d="M13.48,47.07c.6.18,1.4-1.11,1.53-1.6.2-.7-.13-1.35.05-2.06.11-.43.63-1.04.61-1.38-.02-.35-.46-.46-.77-.39-.47.11-.92,1.16-1.01,1.59-.17.83.14,1.69-.14,2.46-.1.29-.8,1.21-.28,1.37Z"/>
        <path class="cls-2" d="M11.52,48.75l-.8-1.46-.5-1.26c-.07.37-.22.7-.25,1.08-.03.39-.01,1.4.19,1.72.15.24,1.12.04,1.36-.08Z"/>
        <path class="cls-2" d="M9.79,25.93c-.53.04-.35.38-.22.74.59,1.56,2.34,1.78,2.13-.34-.06-.57-.49-.5-.69-.08-.21.44-.02.92-.14,1.34-.41-.01-1.05-1.28-1.08-1.67Z"/>
        <path class="cls-2" d="M7.13,43.15c-.07.27,1.39.83,1.67.83l-.77-1.42c-.12.11-.88.5-.9.59Z"/>
        <path class="cls-2" d="M46.01,58.84c-.76.16-.26,1.65-.12,2.14.14.48.7,2.2,1.15,2.38.47.19.78-.15.79-.6.01-.67-.66-2.73-1.01-3.33-.16-.28-.45-.66-.81-.59Z"/>
        <path class="cls-2" d="M31.03,59.14l-.53,1.86c.87.47,1.38-1.16,1.08-1.66-.09-.15-.44-.35-.55-.19Z"/>
        <polygon class="cls-2" points="54.03 59.08 54.81 58.55 52.83 56.36 54.03 59.08"/>
        <polygon class="cls-2" points="37.74 63.65 38.73 63.65 38.2 60.62 37.74 63.65"/>
        <path class="cls-2" d="M38.16,66.76c-1.74.09-1.68,2.77.11,2.71,1.8-.06,1.64-2.8-.11-2.71ZM38.08,68.29c-.13,0-.08,0-.09.09-.02.13.03.69,0,.71h-.37v-1.98c.38-.06.96-.2,1.2.19.34.53-.2.81-.2.89,0,.05.42.66.42.87-.65.28-.47-.75-.96-.77Z"/>
        <path class="cls-2" d="M35.41,9.84c2.76-.3,2.41-4.71-.53-4.31-2.89.39-2.19,4.61.53,4.31Z"/>
        <path class="cls-2" d="M48.09,42.93c-1.14-1.2-1.07-3.19.15-4.35.01-.04-.31-.31-.59-.6-.21-.2-.37-.38-.55-.54-.55.27-1.02.69-1.37,1.19-1.15,1.48.02,3.01-1.09,3.85-.63.38-.54.23-1.65.26-1.14,0-3.16,0-4.18,0-.08-5.4-.31-11.14-.02-16.58.08-.55.38-1.04.93-1.23.21-.07.31-.15.49-.12.3,0,.94,0,.93,0,0-.26,0-1.41,0-1.79.11.13-8.09-.1-10.27,0,.02.08-.04,1.74.02,1.79.3,0,.75,0,1.07,0,.45.01,1.21.83,1.2,1.33.05.41-.03,12.27,0,15.77-.05.6-.75,1.32-1.28,1.33-.28,0-.81,0-1.02,0-.07,0-.05-.01-.06.05,0,.33,0,1.86,0,2.3-.03,0,6.08,0,11.15,0h5.16c.93,0,1.5,0,1.5,0,0-.01,0-.04,0-.09,0-.39,0-1.54,0-2.09.01-.07-.45-.38-.53-.47h0Z"/>
        <path class="cls-2" d="M37.99,67.92c.13,0,.38.02.48-.08.35-.34-.68-.92-.48.08Z"/>
      </g>
    </g>
  </g>
</svg>